<svg width="43" height="36" viewBox="0 0 43 36" fill="none" xmlns="http://www.w3.org/2000/svg">
<path d="M18.4888 35.0003C18.3736 35.0003 18.2569 34.9726 18.1519 34.9172L1.3923 26.167C1.15167 26.0415 1 25.7921 1 25.5209V9.1142C1 8.8619 1.13125 8.62711 1.34563 8.49439C1.56001 8.36168 1.82981 8.35002 2.0544 8.46231L18.814 16.848C19.0605 16.9719 19.2165 17.2242 19.2165 17.4998V34.2711C19.2165 34.5263 19.0838 34.7626 18.8651 34.8953C18.7513 34.9653 18.6201 35.0003 18.4888 35.0003ZM2.45837 25.079L17.7596 33.068V17.9505L2.45837 10.294V25.079Z" fill="#4D4D4D"/>
<path d="M18.5124 35.0004C18.3811 35.0004 18.2499 34.9654 18.1347 34.8954C17.9174 34.7627 17.7832 34.5264 17.7832 34.2712V17.4999C17.7832 17.2243 17.9392 16.972 18.1857 16.8481L34.9453 8.46242C35.1685 8.34867 35.4397 8.36033 35.6541 8.4945C35.8699 8.62721 36.0012 8.86201 36.0012 9.11431V25.521C36.0012 25.7922 35.8495 26.0416 35.6089 26.167L18.8493 34.9173C18.7443 34.9727 18.6276 35.0004 18.5124 35.0004V35.0004ZM19.2416 17.9506V33.0681L34.5428 25.0791V10.2941L19.2416 17.9506ZM35.272 25.521H35.2866H35.272Z" fill="#4D4D4D"/>
<path d="M1.72875 9.84426C1.46041 9.84426 1.20373 9.69697 1.0754 9.44175C0.89456 9.08153 1.04186 8.64402 1.40207 8.46318L18.185 0.0775411C18.3907 -0.024545 18.6327 -0.024545 18.8369 0.0775411L35.5965 8.46318C35.9568 8.64402 36.1026 9.08153 35.9232 9.44175C35.7424 9.80197 35.3063 9.94635 34.9446 9.76843L18.5117 1.54466L2.05542 9.76697C1.95042 9.81947 1.83959 9.84426 1.72875 9.84426V9.84426Z" fill="#4D4D4D"/>
<path d="M27.2499 21.8751C26.8474 21.8751 26.5207 21.5484 26.5207 21.1459V13.5755L10.1636 5.39108C9.80339 5.2117 9.65755 4.77273 9.83839 4.41251C10.0192 4.05229 10.4567 3.90792 10.817 4.08584L27.5766 12.4715C27.823 12.5969 27.9791 12.8492 27.9791 13.1248V21.1459C27.9791 21.5484 27.6524 21.8751 27.2499 21.8751V21.8751Z" fill="#4D4D4D"/>
<circle cx="35.5632" cy="27.5637" r="6.6877" fill="white" stroke="#4D4D4D" stroke-width="1.5"/>
<path d="M34.6461 30.5081C34.5708 30.5838 34.4681 30.6261 34.3613 30.6261C34.2546 30.6261 34.1519 30.5838 34.0766 30.5081L31.8025 28.2337C31.5665 27.9976 31.5665 27.615 31.8025 27.3794L32.0873 27.0946C32.3233 26.8586 32.7055 26.8586 32.9415 27.0946L34.3613 28.5144L38.1977 24.678C38.4338 24.442 38.8164 24.442 39.052 24.678L39.3368 24.9628C39.5728 25.1988 39.5728 25.5814 39.3368 25.817L34.6461 30.5081Z" fill="#4D4D4D"/>
</svg>
