<?xml version="1.0" encoding="utf-8"?>
<!-- Generator: Adobe Illustrator 16.0.3, SVG Export Plug-In . SVG Version: 6.00 Build 0)  -->
<!DOCTYPE svg PUBLIC "-//W3C//DTD SVG 1.1//EN" "http://www.w3.org/Graphics/SVG/1.1/DTD/svg11.dtd" [
	<!ENTITY ns_extend "http://ns.adobe.com/Extensibility/1.0/">
	<!ENTITY ns_ai "http://ns.adobe.com/AdobeIllustrator/10.0/">
	<!ENTITY ns_graphs "http://ns.adobe.com/Graphs/1.0/">
	<!ENTITY ns_vars "http://ns.adobe.com/Variables/1.0/">
	<!ENTITY ns_imrep "http://ns.adobe.com/ImageReplacement/1.0/">
	<!ENTITY ns_sfw "http://ns.adobe.com/SaveForWeb/1.0/">
	<!ENTITY ns_custom "http://ns.adobe.com/GenericCustomNamespace/1.0/">
	<!ENTITY ns_adobe_xpath "http://ns.adobe.com/XPath/1.0/">
]>
<svg version="1.1" id="Layer_1" xmlns:x="&ns_extend;" xmlns:i="&ns_ai;" xmlns:graph="&ns_graphs;"
	 xmlns="http://www.w3.org/2000/svg" xmlns:xlink="http://www.w3.org/1999/xlink" x="0px" y="0px" width="83.5px" height="24px"
	 viewBox="0 0 83.5 24" enable-background="new 0 0 83.5 24" xml:space="preserve">
<metadata>
	<sfw  xmlns="&ns_sfw;">
		<slices></slices>
		<sliceSourceBounds  height="62.833" width="83.5" y="-582.999" x="457.833" bottomLeftOrigin="true"></sliceSourceBounds>
	</sfw>
</metadata>
<g>
	<g>
		<path fill="#08A6D9" d="M83.5,21c0,1.657-1.343,3-3,3H3c-1.657,0-3-1.343-3-3V3c0-1.656,1.343-3,3-3h77.5c1.657,0,3,1.344,3,3V21z
			"/>
	</g>
	<g>
		<g>
			<circle fill="#FFFFFF" cx="16.758" cy="12" r="6.667"/>
		</g>
		<g>
			<path fill="#08A6D9" d="M15.599,14.607c-0.167,0-0.333-0.063-0.459-0.19l-1.599-1.598c-0.254-0.254-0.254-0.665,0-0.92
				c0.254-0.254,0.666-0.254,0.919,0l1.139,1.139l3.457-3.457c0.254-0.254,0.665-0.254,0.919,0s0.254,0.666,0,0.92l-3.917,3.916
				C15.931,14.544,15.765,14.607,15.599,14.607z"/>
		</g>
	</g>
	<g>
		<path fill="#FFFFFF" d="M31.912,16.063l-2.86-8.763h1.222l1.365,4.316c0.377,1.184,0.702,2.249,0.936,3.276h0.026
			c0.247-1.015,0.611-2.119,1.001-3.264l1.482-4.329h1.209l-3.133,8.763H31.912z"/>
		<path fill="#FFFFFF" d="M37.541,13.125c0.026,1.548,1.014,2.185,2.158,2.185c0.819,0,1.313-0.144,1.742-0.325l0.195,0.819
			c-0.403,0.182-1.092,0.39-2.093,0.39c-1.938,0-3.094-1.273-3.094-3.172s1.118-3.394,2.951-3.394c2.054,0,2.6,1.808,2.6,2.965
			c0,0.233-0.026,0.416-0.039,0.532H37.541z M40.895,12.307c0.013-0.729-0.299-1.859-1.586-1.859c-1.157,0-1.664,1.066-1.755,1.859
			H40.895z"/>
		<path fill="#FFFFFF" d="M43.546,11.734c0-0.741-0.013-1.378-0.052-1.963h1.001l0.039,1.234h0.052
			c0.286-0.845,0.976-1.378,1.742-1.378c0.13,0,0.221,0.014,0.325,0.039v1.079c-0.117-0.025-0.234-0.039-0.39-0.039
			c-0.807,0-1.379,0.611-1.534,1.47c-0.026,0.155-0.052,0.338-0.052,0.532v3.354h-1.132V11.734z"/>
		<path fill="#FFFFFF" d="M49.252,8.003c0.014,0.391-0.272,0.702-0.728,0.702c-0.403,0-0.689-0.312-0.689-0.702
			c0-0.402,0.3-0.715,0.716-0.715C48.98,7.288,49.252,7.601,49.252,8.003z M47.979,16.063V9.771h1.144v6.292H47.979z"/>
		<path fill="#FFFFFF" d="M51.268,16.063v-5.421h-0.885V9.771h0.885V9.434c0-1.664,0.975-2.743,2.743-2.743
			c0.585,0,1.273,0.182,1.599,0.416l-0.325,0.871c-0.272-0.195-0.767-0.364-1.326-0.364c-1.209,0-1.56,0.845-1.56,1.846v0.313h3.653
			v6.292H54.92v-5.421h-2.521v5.421H51.268z"/>
		<path fill="#FFFFFF" d="M58.717,13.125c0.026,1.548,1.014,2.185,2.158,2.185c0.819,0,1.313-0.144,1.742-0.325l0.195,0.819
			c-0.403,0.182-1.093,0.39-2.094,0.39c-1.937,0-3.094-1.273-3.094-3.172s1.118-3.394,2.951-3.394c2.054,0,2.6,1.808,2.6,2.965
			c0,0.233-0.025,0.416-0.039,0.532H58.717z M62.072,12.307c0.013-0.729-0.299-1.859-1.586-1.859c-1.157,0-1.664,1.066-1.756,1.859
			H62.072z"/>
		<path fill="#FFFFFF" d="M70.157,6.833v7.605c0,0.559,0.014,1.196,0.053,1.625h-1.027l-0.052-1.092h-0.026
			c-0.351,0.702-1.118,1.234-2.145,1.234c-1.521,0-2.691-1.286-2.691-3.197c-0.013-2.094,1.287-3.381,2.821-3.381
			c0.962,0,1.611,0.455,1.897,0.962h0.026V6.833H70.157z M69.013,12.332c0-0.143-0.013-0.338-0.052-0.48
			c-0.169-0.729-0.793-1.326-1.651-1.326c-1.183,0-1.885,1.04-1.885,2.431c0,1.274,0.624,2.327,1.858,2.327
			c0.768,0,1.47-0.507,1.678-1.365c0.039-0.155,0.052-0.312,0.052-0.493V12.332z"/>
	</g>
</g>
</svg>
